<svg xmlns="http://www.w3.org/2000/svg" xmlns:xlink="http://www.w3.org/1999/xlink" preserveAspectRatio="xMidYMid" width="500" height="500" viewBox="0 0 500 500">
  <defs>
    <style>
      .cls-1 {
        fill: #000;
        fill-rule: evenodd;
      }
    </style>
  </defs>
  <path d="M442.195,436.163 L366.519,436.163 L366.519,474.203 C366.519,481.265 360.775,487.004 353.713,487.004 L58.807,487.004 C51.744,487.004 46.001,481.265 46.001,474.203 L46.001,168.197 C46.001,168.022 46.020,167.850 46.053,167.681 C46.066,167.615 46.091,167.554 46.109,167.489 C46.137,167.390 46.162,167.289 46.201,167.194 C46.226,167.132 46.261,167.076 46.291,167.017 C46.338,166.923 46.383,166.829 46.441,166.740 C46.465,166.704 46.495,166.672 46.521,166.636 C46.586,166.548 46.647,166.457 46.722,166.376 L142.367,65.657 C142.865,65.132 143.561,64.840 144.283,64.840 L190.991,64.840 L236.864,14.850 C237.367,14.309 238.071,14.000 238.810,14.000 L442.195,14.000 C449.258,14.000 455.002,19.747 455.002,26.809 L455.002,423.363 C455.002,430.424 449.258,436.163 442.195,436.163 ZM141.645,74.087 L54.784,165.559 L134.716,165.559 C138.535,165.559 141.645,162.450 141.645,158.635 L141.645,74.087 ZM146.920,70.115 L146.920,158.635 C146.920,165.362 141.447,170.834 134.716,170.834 L51.276,170.834 L51.276,474.203 C51.276,478.353 54.657,481.728 58.807,481.728 L353.713,481.728 C357.863,481.728 361.244,478.353 361.244,474.203 L361.244,77.650 C361.244,73.500 357.863,70.115 353.713,70.115 L146.920,70.115 ZM449.726,26.809 C449.726,22.659 446.345,19.274 442.195,19.274 L239.970,19.274 L198.162,64.840 L353.713,64.840 C360.775,64.840 366.519,70.587 366.519,77.650 L366.519,430.889 L442.195,430.889 C446.345,430.889 449.726,427.512 449.726,423.363 L449.726,26.809 ZM333.376,364.111 L74.061,364.111 C73.091,364.111 72.301,363.321 72.301,362.350 L72.301,342.016 C72.301,341.045 73.091,340.255 74.061,340.255 L333.376,340.255 C334.346,340.255 335.137,341.045 335.137,342.016 L335.137,362.350 C335.137,363.321 334.346,364.111 333.376,364.111 ZM331.615,343.777 L75.823,343.777 L75.823,360.589 L331.615,360.589 L331.615,343.777 ZM333.376,318.357 L74.061,318.357 C73.091,318.357 72.301,317.566 72.301,316.596 L72.301,296.261 C72.301,295.290 73.091,294.499 74.061,294.499 L333.376,294.499 C334.346,294.499 335.137,295.290 335.137,296.261 L335.137,316.596 C335.137,317.566 334.346,318.357 333.376,318.357 ZM331.615,298.022 L75.823,298.022 L75.823,314.835 L331.615,314.835 L331.615,298.022 ZM333.376,272.602 L74.061,272.602 C73.091,272.602 72.301,271.811 72.301,270.841 L72.301,250.506 C72.301,249.535 73.091,248.745 74.061,248.745 L333.376,248.745 C334.346,248.745 335.137,249.535 335.137,250.506 L335.137,270.841 C335.137,271.811 334.346,272.602 333.376,272.602 ZM331.615,252.267 L75.823,252.267 L75.823,269.079 L331.615,269.079 L331.615,252.267 ZM333.376,226.847 L74.061,226.847 C73.091,226.847 72.301,226.057 72.301,225.085 L72.301,204.751 C72.301,203.780 73.091,202.990 74.061,202.990 L333.376,202.990 C334.346,202.990 335.137,203.780 335.137,204.751 L335.137,225.085 C335.137,226.057 334.346,226.847 333.376,226.847 ZM331.615,206.512 L75.823,206.512 L75.823,223.324 L331.615,223.324 L331.615,206.512 ZM333.376,186.178 L175.754,186.178 C174.784,186.178 173.993,185.387 173.993,184.417 L173.993,164.074 C173.993,163.102 174.784,162.312 175.754,162.312 L333.376,162.312 C334.346,162.312 335.137,163.102 335.137,164.074 L335.137,184.417 C335.137,185.387 334.346,186.178 333.376,186.178 ZM331.615,165.835 L177.516,165.835 L177.516,182.656 L331.615,182.656 L331.615,165.835 ZM333.376,145.500 L216.428,145.500 C215.457,145.500 214.667,144.710 214.667,143.739 L214.667,123.404 C214.667,122.434 215.457,121.643 216.428,121.643 L333.376,121.643 C334.346,121.643 335.137,122.434 335.137,123.404 L335.137,143.739 C335.137,144.710 334.346,145.500 333.376,145.500 ZM331.615,125.165 L218.190,125.165 L218.190,141.978 L331.615,141.978 L331.615,125.165 ZM74.061,386.010 L292.697,386.010 C293.669,386.010 294.459,386.800 294.459,387.771 L294.459,408.105 C294.459,409.076 293.669,409.866 292.697,409.866 L74.061,409.866 C73.091,409.866 72.301,409.076 72.301,408.105 L72.301,387.771 C72.301,386.800 73.091,386.010 74.061,386.010 ZM75.823,406.344 L290.936,406.344 L290.936,389.532 L75.823,389.532 L75.823,406.344 Z" class="cls-1"/>
</svg>
