<svg xmlns="http://www.w3.org/2000/svg" width="1440" height="900"><path d="M662,463L536,341L594,482Z" fill="#da2033" stroke="#da2033" stroke-width="1.51"/><path d="M662,463L608,290L536,341Z" fill="#e02034" stroke="#e02034" stroke-width="1.51"/><path d="M662,463L737,387L608,290Z" fill="#da2033" stroke="#da2033" stroke-width="1.51"/><path d="M536,341L479,440L594,482Z" fill="#df2034" stroke="#df2034" stroke-width="1.51"/><path d="M737,387L663,241L608,290Z" fill="#e02033" stroke="#e02033" stroke-width="1.51"/><path d="M396,261L396,330L536,341Z" fill="#ed1e33" stroke="#ed1e33" stroke-width="1.51"/><path d="M479,440L478,533L594,482Z" fill="#d92033" stroke="#d92033" stroke-width="1.51"/><path d="M594,482L717,613L662,463Z" fill="#cc2032" stroke="#cc2032" stroke-width="1.51"/><path d="M478,533L547,575L594,482Z" fill="#d32032" stroke="#d32032" stroke-width="1.51"/><path d="M662,463L765,506L737,387Z" fill="#ce2031" stroke="#ce2031" stroke-width="1.51"/><path d="M717,613L765,506L662,463Z" fill="#c62030" stroke="#c62030" stroke-width="1.51"/><path d="M536,341L396,330L479,440Z" fill="#e61f33" stroke="#e61f33" stroke-width="1.51"/><path d="M479,440L323,411L478,533Z" fill="#dd1e31" stroke="#dd1e31" stroke-width="1.51"/><path d="M539,167L536,341L608,290Z" fill="#ea1f34" stroke="#ea1f34" stroke-width="1.51"/><path d="M663,241L539,167L608,290Z" fill="#e81e32" stroke="#e81e32" stroke-width="1.51"/><path d="M654,651L717,613L594,482Z" fill="#c62031" stroke="#c62031" stroke-width="1.51"/><path d="M539,167L396,261L536,341Z" fill="#ee1d32" stroke="#ee1d32" stroke-width="1.51"/><path d="M765,506L859,455L737,387Z" fill="#ca2031" stroke="#ca2031" stroke-width="1.51"/><path d="M737,387L780,197L663,241Z" fill="#dd1f32" stroke="#dd1f32" stroke-width="1.51"/><path d="M843,514L859,455L765,506Z" fill="#c32030" stroke="#c32030" stroke-width="1.51"/><path d="M521,703L654,651L547,575Z" fill="#d32032" stroke="#d32032" stroke-width="1.51"/><path d="M547,575L654,651L594,482Z" fill="#cb2031" stroke="#cb2031" stroke-width="1.51"/><path d="M879,325L780,197L737,387Z" fill="#d72032" stroke="#d72032" stroke-width="1.51"/><path d="M663,241L637,52L539,167Z" fill="#ea1b30" stroke="#ea1b30" stroke-width="1.51"/><path d="M717,613L820,550L765,506Z" fill="#c02030" stroke="#c02030" stroke-width="1.51"/><path d="M820,550L843,514L765,506Z" fill="#c0202f" stroke="#c0202f" stroke-width="1.51"/><path d="M859,455L879,325L737,387Z" fill="#cd2032" stroke="#cd2032" stroke-width="1.51"/><path d="M396,330L323,411L479,440Z" fill="#e61e31" stroke="#e61e31" stroke-width="1.51"/><path d="M270,355L323,411L396,330Z" fill="#ea1c30" stroke="#ea1c30" stroke-width="1.51"/><path d="M478,533L480,659L547,575Z" fill="#d12031" stroke="#d12031" stroke-width="1.51"/><path d="M359,632L480,659L478,533Z" fill="#d51f30" stroke="#d51f30" stroke-width="1.51"/><path d="M780,197L785,143L663,241Z" fill="#df1d2f" stroke="#df1d2f" stroke-width="1.51"/><path d="M898,82L785,143L780,197Z" fill="#db1c2d" stroke="#db1c2d" stroke-width="1.51"/><path d="M539,167L430,136L396,261Z" fill="#f11b30" stroke="#f11b30" stroke-width="1.51"/><path d="M396,261L270,355L396,330Z" fill="#ef1d31" stroke="#ef1d31" stroke-width="1.51"/><path d="M511,83L430,136L539,167Z" fill="#f2192e" stroke="#f2192e" stroke-width="1.51"/><path d="M480,659L521,703L547,575Z" fill="#d62032" stroke="#d62032" stroke-width="1.51"/><path d="M820,550L930,665L843,514Z" fill="#b7202e" stroke="#b7202e" stroke-width="1.51"/><path d="M843,514L974,481L859,455Z" fill="#bf202f" stroke="#bf202f" stroke-width="1.51"/><path d="M717,613L818,637L820,550Z" fill="#bf2030" stroke="#bf2030" stroke-width="1.51"/><path d="M744,758L818,637L717,613Z" fill="#c82031" stroke="#c82031" stroke-width="1.51"/><path d="M744,758L717,613L654,651Z" fill="#cc2032" stroke="#cc2032" stroke-width="1.51"/><path d="M637,52L511,83L539,167Z" fill="#f01a2e" stroke="#f01a2e" stroke-width="1.51"/><path d="M430,136L333,209L396,261Z" fill="#f21a2f" stroke="#f21a2f" stroke-width="1.51"/><path d="M243,287L270,355L396,261Z" fill="#f11b30" stroke="#f11b30" stroke-width="1.51"/><path d="M311,577L359,632L478,533Z" fill="#d31e2f" stroke="#d31e2f" stroke-width="1.51"/><path d="M311,577L478,533L323,411Z" fill="#da1d2f" stroke="#da1d2f" stroke-width="1.51"/><path d="M480,659L485,799L521,703Z" fill="#df2033" stroke="#df2033" stroke-width="1.51"/><path d="M785,143L637,52L663,241Z" fill="#e41c2e" stroke="#e41c2e" stroke-width="1.51"/><path d="M879,325L926,265L780,197Z" fill="#d41f30" stroke="#d41f30" stroke-width="1.51"/><path d="M1011,380L926,265L879,325Z" fill="#d12032" stroke="#d12032" stroke-width="1.51"/><path d="M1011,380L879,325L859,455Z" fill="#c92031" stroke="#c92031" stroke-width="1.51"/><path d="M225,549L311,577L323,411Z" fill="#db1c2e" stroke="#db1c2e" stroke-width="1.51"/><path d="M995,570L974,481L843,514Z" fill="#bc2030" stroke="#bc2030" stroke-width="1.51"/><path d="M174,422L225,549L323,411Z" fill="#e21b2d" stroke="#e21b2d" stroke-width="1.51"/><path d="M333,209L243,287L396,261Z" fill="#f21a2f" stroke="#f21a2f" stroke-width="1.51"/><path d="M706,835L744,758L654,651Z" fill="#d42033" stroke="#d42033" stroke-width="1.51"/><path d="M818,637L930,665L820,550Z" fill="#bb202f" stroke="#bb202f" stroke-width="1.51"/><path d="M974,481L1011,380L859,455Z" fill="#c52031" stroke="#c52031" stroke-width="1.51"/><path d="M311,577L247,667L359,632Z" fill="#d91d2d" stroke="#d91d2d" stroke-width="1.51"/><path d="M174,422L323,411L270,355Z" fill="#e91b2e" stroke="#e91b2e" stroke-width="1.51"/><path d="M785,143L682,-16L637,52Z" fill="#e61a2c" stroke="#e61a2c" stroke-width="1.51"/><path d="M554,-63L487,-40L511,83Z" fill="#f11b2f" stroke="#f11b2f" stroke-width="1.51"/><path d="M830,-57L682,-16L785,143Z" fill="#e01b2d" stroke="#e01b2d" stroke-width="1.51"/><path d="M943,795L930,665L818,637Z" fill="#c12030" stroke="#c12030" stroke-width="1.51"/><path d="M974,481L1148,503L1011,380Z" fill="#cb2031" stroke="#cb2031" stroke-width="1.51"/><path d="M521,703L706,835L654,651Z" fill="#d82033" stroke="#d82033" stroke-width="1.51"/><path d="M319,801L485,799L480,659Z" fill="#e41e32" stroke="#e41e32" stroke-width="1.51"/><path d="M319,801L480,659L359,632Z" fill="#df1e30" stroke="#df1e30" stroke-width="1.51"/><path d="M485,799L503,804L521,703Z" fill="#e42034" stroke="#e42034" stroke-width="1.51"/><path d="M930,665L995,570L843,514Z" fill="#b6202e" stroke="#b6202e" stroke-width="1.51"/><path d="M926,265L898,82L780,197Z" fill="#d61d2e" stroke="#d61d2e" stroke-width="1.51"/><path d="M926,46L898,82L1047,65Z" fill="#dc1b2b" stroke="#dc1b2b" stroke-width="1.51"/><path d="M333,209L229,191L243,287Z" fill="#f4182d" stroke="#f4182d" stroke-width="1.51"/><path d="M129,372L174,422L270,355Z" fill="#ec1a2d" stroke="#ec1a2d" stroke-width="1.51"/><path d="M276,83L229,191L333,209Z" fill="#f7162b" stroke="#f7162b" stroke-width="1.51"/><path d="M276,83L333,209L430,136Z" fill="#f5162c" stroke="#f5162c" stroke-width="1.51"/><path d="M487,-40L430,136L511,83Z" fill="#f4172d" stroke="#f4172d" stroke-width="1.51"/><path d="M129,372L270,355L243,287Z" fill="#f11a2e" stroke="#f11a2e" stroke-width="1.51"/><path d="M554,-63L511,83L637,52Z" fill="#ef1a2e" stroke="#ef1a2e" stroke-width="1.51"/><path d="M225,549L247,667L311,577Z" fill="#d71c2c" stroke="#d71c2c" stroke-width="1.51"/><path d="M202,766L247,667L90,678Z" fill="#e51a2c" stroke="#e51a2c" stroke-width="1.51"/><path d="M943,795L973,701L930,665Z" fill="#c62031" stroke="#c62031" stroke-width="1.51"/><path d="M503,804L706,835L521,703Z" fill="#e12034" stroke="#e12034" stroke-width="1.51"/><path d="M321,-19L276,83L430,136Z" fill="#f81329" stroke="#f81329" stroke-width="1.51"/><path d="M605,-72L554,-63L637,52Z" fill="#eb1c30" stroke="#eb1c30" stroke-width="1.51"/><path d="M807,-108L605,-72L682,-16Z" fill="#e21d30" stroke="#e21d30" stroke-width="1.51"/><path d="M682,-16L605,-72L637,52Z" fill="#e81c2f" stroke="#e81c2f" stroke-width="1.51"/><path d="M898,82L830,-57L785,143Z" fill="#dc1b2b" stroke="#dc1b2b" stroke-width="1.51"/><path d="M1051,216L898,82L926,265Z" fill="#d81d2e" stroke="#d81d2e" stroke-width="1.51"/><path d="M107,398L129,372L-56,288Z" fill="#ed1b2f" stroke="#ed1b2f" stroke-width="1.51"/><path d="M126,224L129,372L243,287Z" fill="#f4172c" stroke="#f4172c" stroke-width="1.51"/><path d="M174,422L85,575L225,549Z" fill="#de1a2b" stroke="#de1a2b" stroke-width="1.51"/><path d="M930,665L973,701L995,570Z" fill="#bf202f" stroke="#bf202f" stroke-width="1.51"/><path d="M943,795L818,637L744,758Z" fill="#c92031" stroke="#c92031" stroke-width="1.51"/><path d="M1066,223L1051,216L1011,380Z" fill="#db1f32" stroke="#db1f32" stroke-width="1.51"/><path d="M1011,380L1051,216L926,265Z" fill="#d71f32" stroke="#d71f32" stroke-width="1.51"/><path d="M1159,315L1066,223L1011,380Z" fill="#dc2033" stroke="#dc2033" stroke-width="1.51"/><path d="M1051,216L1047,65L898,82Z" fill="#dd1b2c" stroke="#dd1b2c" stroke-width="1.51"/><path d="M1148,503L974,481L995,570Z" fill="#c32031" stroke="#c32031" stroke-width="1.51"/><path d="M503,804L612,950L706,835Z" fill="#e12034" stroke="#e12034" stroke-width="1.51"/><path d="M485,799L490,874L503,804Z" fill="#eb1f34" stroke="#eb1f34" stroke-width="1.51"/><path d="M462,891L490,874L485,799Z" fill="#e91f34" stroke="#e91f34" stroke-width="1.51"/><path d="M247,667L319,801L359,632Z" fill="#e11c2e" stroke="#e11c2e" stroke-width="1.51"/><path d="M129,372L107,398L174,422Z" fill="#ea1a2d" stroke="#ea1a2d" stroke-width="1.51"/><path d="M126,224L243,287L229,191Z" fill="#f5162c" stroke="#f5162c" stroke-width="1.51"/><path d="M487,-40L321,-19L430,136Z" fill="#f5172c" stroke="#f5172c" stroke-width="1.51"/><path d="M107,101L126,224L229,191Z" fill="#f81329" stroke="#f81329" stroke-width="1.51"/><path d="M393,-111L321,-19L487,-40Z" fill="#f21a2e" stroke="#f21a2e" stroke-width="1.51"/><path d="M926,46L830,-57L898,82Z" fill="#d81c2b" stroke="#d81c2b" stroke-width="1.51"/><path d="M176,60L229,191L276,83Z" fill="#f91228" stroke="#f91228" stroke-width="1.51"/><path d="M319,801L462,891L485,799Z" fill="#ed1e33" stroke="#ed1e33" stroke-width="1.51"/><path d="M490,874L612,950L503,804Z" fill="#e52035" stroke="#e52035" stroke-width="1.51"/><path d="M851,881L744,758L706,835Z" fill="#d82033" stroke="#d82033" stroke-width="1.51"/><path d="M851,881L943,795L744,758Z" fill="#d12032" stroke="#d12032" stroke-width="1.51"/><path d="M830,-57L807,-108L682,-16Z" fill="#dd1d30" stroke="#dd1d30" stroke-width="1.51"/><path d="M605,-72L556,-148L554,-63Z" fill="#ea1e32" stroke="#ea1e32" stroke-width="1.51"/><path d="M944,-121L807,-108L830,-57Z" fill="#d51e30" stroke="#d51e30" stroke-width="1.51"/><path d="M944,-121L830,-57L926,46Z" fill="#d41e2e" stroke="#d41e2e" stroke-width="1.51"/><path d="M811,912L851,881L706,835Z" fill="#d22032" stroke="#d22032" stroke-width="1.51"/><path d="M554,-63L556,-148L487,-40Z" fill="#ee1d32" stroke="#ee1d32" stroke-width="1.51"/><path d="M807,-108L556,-148L605,-72Z" fill="#e31e32" stroke="#e31e32" stroke-width="1.51"/><path d="M321,-19L176,60L276,83Z" fill="#f91228" stroke="#f91228" stroke-width="1.51"/><path d="M171,-78L176,60L321,-19Z" fill="#f8132a" stroke="#f8132a" stroke-width="1.51"/><path d="M556,-148L393,-111L487,-40Z" fill="#ef1d32" stroke="#ef1d32" stroke-width="1.51"/><path d="M247,667L202,766L319,801Z" fill="#e81b2e" stroke="#e81b2e" stroke-width="1.51"/><path d="M261,936L449,971L462,891Z" fill="#e21d31" stroke="#e21d31" stroke-width="1.51"/><path d="M85,575L247,667L225,549Z" fill="#d91b2b" stroke="#d91b2b" stroke-width="1.51"/><path d="M1066,223L1047,65L1051,216Z" fill="#df1c2f" stroke="#df1c2f" stroke-width="1.51"/><path d="M107,398L85,575L174,422Z" fill="#e21a2c" stroke="#e21a2c" stroke-width="1.51"/><path d="M-39,473L85,575L107,398Z" fill="#df1c2e" stroke="#df1c2e" stroke-width="1.51"/><path d="M1136,620L995,570L1125,682Z" fill="#c62030" stroke="#c62030" stroke-width="1.51"/><path d="M1136,620L1148,503L995,570Z" fill="#c32030" stroke="#c32030" stroke-width="1.51"/><path d="M1066,223L1104,49L1047,65Z" fill="#e21b2d" stroke="#e21b2d" stroke-width="1.51"/><path d="M449,971L612,950L490,874Z" fill="#df2033" stroke="#df2033" stroke-width="1.51"/><path d="M755,971L811,912L706,835Z" fill="#d12032" stroke="#d12032" stroke-width="1.51"/><path d="M1148,503L1159,315L1011,380Z" fill="#d52033" stroke="#d52033" stroke-width="1.51"/><path d="M943,795L985,815L973,701Z" fill="#cd2031" stroke="#cd2031" stroke-width="1.51"/><path d="M952,938L985,815L943,795Z" fill="#d12032" stroke="#d12032" stroke-width="1.51"/><path d="M952,938L943,795L851,881Z" fill="#cb2031" stroke="#cb2031" stroke-width="1.51"/><path d="M1125,682L995,570L973,701Z" fill="#c52030" stroke="#c52030" stroke-width="1.51"/><path d="M176,60L107,101L229,191Z" fill="#fb1027" stroke="#fb1027" stroke-width="1.51"/><path d="M-56,288L-39,473L107,398Z" fill="#e81c30" stroke="#e81c30" stroke-width="1.51"/><path d="M41,-33L107,101L176,60Z" fill="#fa1128" stroke="#fa1128" stroke-width="1.51"/><path d="M85,575L90,678L247,667Z" fill="#de1b2c" stroke="#de1b2c" stroke-width="1.51"/><path d="M985,815L1125,682L973,701Z" fill="#cd2031" stroke="#cd2031" stroke-width="1.51"/><path d="M811,912L886,972L851,881Z" fill="#c92031" stroke="#c92031" stroke-width="1.51"/><path d="M612,950L755,971L706,835Z" fill="#d52032" stroke="#d52032" stroke-width="1.51"/><path d="M1047,65L1012,-44L926,46Z" fill="#dd1b2c" stroke="#dd1b2c" stroke-width="1.51"/><path d="M1104,49L1012,-44L1047,65Z" fill="#e11b2d" stroke="#e11b2d" stroke-width="1.51"/><path d="M462,891L449,971L490,874Z" fill="#e21f33" stroke="#e21f33" stroke-width="1.51"/><path d="M612,950L626,1055L755,971Z" fill="#cf2032" stroke="#cf2032" stroke-width="1.51"/><path d="M261,936L462,891L319,801Z" fill="#e91c31" stroke="#e91c31" stroke-width="1.51"/><path d="M244,905L319,801L202,766Z" fill="#f11a2f" stroke="#f11a2f" stroke-width="1.51"/><path d="M1203,161L1104,49L1066,223Z" fill="#e51c2e" stroke="#e51c2e" stroke-width="1.51"/><path d="M393,-111L274,-119L321,-19Z" fill="#f3192e" stroke="#f3192e" stroke-width="1.51"/><path d="M556,-148L274,-119L393,-111Z" fill="#ef1c31" stroke="#ef1c31" stroke-width="1.51"/><path d="M807,-108L980,-173L556,-148Z" fill="#d91f32" stroke="#d91f32" stroke-width="1.51"/><path d="M1012,-44L944,-121L926,46Z" fill="#d81d2e" stroke="#d81d2e" stroke-width="1.51"/><path d="M980,-173L944,-121L1012,-44Z" fill="#d71f30" stroke="#d71f30" stroke-width="1.51"/><path d="M1159,315L1206,245L1066,223Z" fill="#e21f32" stroke="#e21f32" stroke-width="1.51"/><path d="M1220,289L1206,245L1159,315Z" fill="#e51f34" stroke="#e51f34" stroke-width="1.51"/><path d="M1220,289L1159,315L1248,402Z" fill="#e32035" stroke="#e32035" stroke-width="1.51"/><path d="M1159,315L1148,503L1248,402Z" fill="#da2033" stroke="#da2033" stroke-width="1.51"/><path d="M1248,402L1148,503L1300,542Z" fill="#d62033" stroke="#d62033" stroke-width="1.51"/><path d="M58,864L244,905L202,766Z" fill="#f2192d" stroke="#f2192d" stroke-width="1.51"/><path d="M1308,215L1203,161L1206,245Z" fill="#eb1d31" stroke="#eb1d31" stroke-width="1.51"/><path d="M1206,245L1203,161L1066,223Z" fill="#e51d31" stroke="#e51d31" stroke-width="1.51"/><path d="M755,971L886,972L811,912Z" fill="#c82031" stroke="#c82031" stroke-width="1.51"/><path d="M1178,797L1187,703L1125,682Z" fill="#d72032" stroke="#d72032" stroke-width="1.51"/><path d="M966,1030L886,972L755,971Z" fill="#c02030" stroke="#c02030" stroke-width="1.51"/><path d="M1238,593L1148,503L1136,620Z" fill="#c82031" stroke="#c82031" stroke-width="1.51"/><path d="M1220,289L1308,215L1206,245Z" fill="#ea1e33" stroke="#ea1e33" stroke-width="1.51"/><path d="M277,980L261,936L248,1045Z" fill="#df1c2d" stroke="#df1c2d" stroke-width="1.51"/><path d="M244,905L261,936L319,801Z" fill="#eb1b2f" stroke="#eb1b2f" stroke-width="1.51"/><path d="M274,-119L171,-78L321,-19Z" fill="#f5172c" stroke="#f5172c" stroke-width="1.51"/><path d="M886,972L952,938L851,881Z" fill="#c42030" stroke="#c42030" stroke-width="1.51"/><path d="M85,575L-43,594L90,678Z" fill="#d91c2d" stroke="#d91c2d" stroke-width="1.51"/><path d="M-56,288L129,372L126,224Z" fill="#f21a2f" stroke="#f21a2f" stroke-width="1.51"/><path d="M-56,288L126,224L-70,197Z" fill="#f21a2f" stroke="#f21a2f" stroke-width="1.51"/><path d="M171,-78L149,-68L176,60Z" fill="#f91229" stroke="#f91229" stroke-width="1.51"/><path d="M1125,682L1187,703L1136,620Z" fill="#cf2032" stroke="#cf2032" stroke-width="1.51"/><path d="M1178,797L1125,682L985,815Z" fill="#d62033" stroke="#d62033" stroke-width="1.51"/><path d="M556,1081L612,950L449,971Z" fill="#d72033" stroke="#d72033" stroke-width="1.51"/><path d="M556,1081L626,1055L612,950Z" fill="#d02032" stroke="#d02032" stroke-width="1.51"/><path d="M1187,703L1238,593L1136,620Z" fill="#cf2032" stroke="#cf2032" stroke-width="1.51"/><path d="M-70,197L126,224L107,101Z" fill="#f6162b" stroke="#f6162b" stroke-width="1.51"/><path d="M261,936L277,980L449,971Z" fill="#e11c2f" stroke="#e11c2f" stroke-width="1.51"/><path d="M248,1045L261,936L244,905Z" fill="#e31b2d" stroke="#e31b2d" stroke-width="1.51"/><path d="M64,805L202,766L90,678Z" fill="#e91a2d" stroke="#e91a2d" stroke-width="1.51"/><path d="M-39,473L-43,594L85,575Z" fill="#d71d2e" stroke="#d71d2e" stroke-width="1.51"/><path d="M-191,583L-43,594L-39,473Z" fill="#d41f30" stroke="#d41f30" stroke-width="1.51"/><path d="M-43,594L6,713L90,678Z" fill="#dd1d2e" stroke="#dd1d2e" stroke-width="1.51"/><path d="M944,-121L980,-173L807,-108Z" fill="#d11f30" stroke="#d11f30" stroke-width="1.51"/><path d="M1097,-127L980,-173L1012,-44Z" fill="#da1f31" stroke="#da1f31" stroke-width="1.51"/><path d="M1097,-127L1012,-44L1162,-62Z" fill="#e01e31" stroke="#e01e31" stroke-width="1.51"/><path d="M6,713L64,805L90,678Z" fill="#e51c2e" stroke="#e51c2e" stroke-width="1.51"/><path d="M966,1030L1066,905L952,938Z" fill="#c82031" stroke="#c82031" stroke-width="1.51"/><path d="M952,938L1066,905L985,815Z" fill="#d02032" stroke="#d02032" stroke-width="1.51"/><path d="M626,1055L966,1030L755,971Z" fill="#c42030" stroke="#c42030" stroke-width="1.51"/><path d="M248,1045L556,1081L449,971Z" fill="#d71f30" stroke="#d71f30" stroke-width="1.51"/><path d="M1066,905L1178,797L985,815Z" fill="#da2033" stroke="#da2033" stroke-width="1.51"/><path d="M1359,716L1300,542L1238,593Z" fill="#d12032" stroke="#d12032" stroke-width="1.51"/><path d="M-56,288L-110,298L-39,473Z" fill="#ea1e32" stroke="#ea1e32" stroke-width="1.51"/><path d="M-49,81L-70,197L107,101Z" fill="#f6162b" stroke="#f6162b" stroke-width="1.51"/><path d="M149,-68L41,-33L176,60Z" fill="#f81329" stroke="#f81329" stroke-width="1.51"/><path d="M58,-78L41,-33L149,-68Z" fill="#f6162c" stroke="#f6162c" stroke-width="1.51"/><path d="M58,-78L149,-68L171,-78Z" fill="#f6162b" stroke="#f6162b" stroke-width="1.51"/><path d="M1238,593L1300,542L1148,503Z" fill="#ce2032" stroke="#ce2032" stroke-width="1.51"/><path d="M1331,346L1308,215L1220,289Z" fill="#ea1f34" stroke="#ea1f34" stroke-width="1.51"/><path d="M1359,716L1238,593L1187,703Z" fill="#d82033" stroke="#d82033" stroke-width="1.51"/><path d="M1300,542L1315,454L1248,402Z" fill="#d92033" stroke="#d92033" stroke-width="1.51"/><path d="M1162,-62L1012,-44L1104,49Z" fill="#e21c2f" stroke="#e21c2f" stroke-width="1.51"/><path d="M1162,-62L1104,49L1292,-54Z" fill="#e91c2f" stroke="#e91c2f" stroke-width="1.51"/><path d="M1292,-54L1104,49L1203,161Z" fill="#ed192d" stroke="#ed192d" stroke-width="1.51"/><path d="M0,791L58,864L64,805Z" fill="#ef1c30" stroke="#ef1c30" stroke-width="1.51"/><path d="M64,805L58,864L202,766Z" fill="#f01a2e" stroke="#f01a2e" stroke-width="1.51"/><path d="M0,791L64,805L6,713Z" fill="#e91c30" stroke="#e91c30" stroke-width="1.51"/><path d="M-70,197L-110,298L-56,288Z" fill="#ef1c31" stroke="#ef1c31" stroke-width="1.51"/><path d="M41,-33L-49,81L107,101Z" fill="#f81329" stroke="#f81329" stroke-width="1.51"/><path d="M-38,-174L58,-78L171,-78Z" fill="#f3182e" stroke="#f3182e" stroke-width="1.51"/><path d="M-90,790L6,713L-191,650Z" fill="#e01e32" stroke="#e01e32" stroke-width="1.51"/><path d="M-90,790L0,791L6,713Z" fill="#e71d31" stroke="#e71d31" stroke-width="1.51"/><path d="M1331,346L1220,289L1248,402Z" fill="#e72034" stroke="#e72034" stroke-width="1.51"/><path d="M-44,14L-49,81L41,-33Z" fill="#f6162b" stroke="#f6162b" stroke-width="1.51"/><path d="M-70,197L-182,170L-110,298Z" fill="#f01c31" stroke="#f01c31" stroke-width="1.51"/><path d="M1315,454L1331,346L1248,402Z" fill="#df2034" stroke="#df2034" stroke-width="1.51"/><path d="M886,972L966,1030L952,938Z" fill="#c12030" stroke="#c12030" stroke-width="1.51"/><path d="M1211,937L1227,794L1178,797Z" fill="#e32035" stroke="#e32035" stroke-width="1.51"/><path d="M556,1081L966,1030L626,1055Z" fill="#c42031" stroke="#c42031" stroke-width="1.51"/><path d="M1178,797L1227,794L1187,703Z" fill="#dd2033" stroke="#dd2033" stroke-width="1.51"/><path d="M1211,937L1178,797L1066,905Z" fill="#db2034" stroke="#db2034" stroke-width="1.51"/><path d="M277,980L248,1045L449,971Z" fill="#dd1d2e" stroke="#dd1d2e" stroke-width="1.51"/><path d="M18,956L248,1045L244,905Z" fill="#e41a2c" stroke="#e41a2c" stroke-width="1.51"/><path d="M-93,-66L-44,14L41,-33Z" fill="#f4182d" stroke="#f4182d" stroke-width="1.51"/><path d="M-49,81L-117,51L-70,197Z" fill="#f5172c" stroke="#f5172c" stroke-width="1.51"/><path d="M-110,298L-171,408L-39,473Z" fill="#e51e32" stroke="#e51e32" stroke-width="1.51"/><path d="M-182,170L-171,408L-110,298Z" fill="#ec1e33" stroke="#ec1e33" stroke-width="1.51"/><path d="M-44,14L-117,51L-49,81Z" fill="#f6162b" stroke="#f6162b" stroke-width="1.51"/><path d="M-93,-66L-117,51L-44,14Z" fill="#f4182d" stroke="#f4182d" stroke-width="1.51"/><path d="M58,864L18,956L244,905Z" fill="#e91b2e" stroke="#e91b2e" stroke-width="1.51"/><path d="M-97,937L18,956L58,864Z" fill="#e51d30" stroke="#e51d30" stroke-width="1.51"/><path d="M-191,650L6,713L-43,594Z" fill="#da1e30" stroke="#da1e30" stroke-width="1.51"/><path d="M1227,794L1359,716L1187,703Z" fill="#df2033" stroke="#df2033" stroke-width="1.51"/><path d="M1131,1074L1211,937L1066,905Z" fill="#d02032" stroke="#d02032" stroke-width="1.51"/><path d="M-97,937L58,864L0,791Z" fill="#eb1c31" stroke="#eb1c31" stroke-width="1.51"/><path d="M1352,771L1359,716L1227,794Z" fill="#df2034" stroke="#df2034" stroke-width="1.51"/><path d="M1300,542L1438,500L1315,454Z" fill="#d12032" stroke="#d12032" stroke-width="1.51"/><path d="M1315,454L1438,500L1331,346Z" fill="#d72033" stroke="#d72033" stroke-width="1.51"/><path d="M-171,408L-191,583L-39,473Z" fill="#da1f31" stroke="#da1f31" stroke-width="1.51"/><path d="M1162,-62L1256,-139L1097,-127Z" fill="#e51e32" stroke="#e51e32" stroke-width="1.51"/><path d="M1097,-127L1256,-139L980,-173Z" fill="#df1f33" stroke="#df1f33" stroke-width="1.51"/><path d="M1387,81L1292,-54L1203,161Z" fill="#f1192e" stroke="#f1192e" stroke-width="1.51"/><path d="M1387,81L1203,161L1308,215Z" fill="#ee1b30" stroke="#ee1b30" stroke-width="1.51"/><path d="M-117,51L-182,170L-70,197Z" fill="#f3192e" stroke="#f3192e" stroke-width="1.51"/><path d="M-171,408L-182,170L-191,583Z" fill="#e32034" stroke="#e32034" stroke-width="1.51"/><path d="M1373,926L1352,771L1227,794Z" fill="#e62035" stroke="#e62035" stroke-width="1.51"/><path d="M-191,583L-191,650L-43,594Z" fill="#d42031" stroke="#d42031" stroke-width="1.51"/><path d="M-3,1028L63,1079L18,956Z" fill="#db1d2e" stroke="#db1d2e" stroke-width="1.51"/><path d="M-117,51L-124,-120L-182,170Z" fill="#f3182d" stroke="#f3182d" stroke-width="1.51"/><path d="M58,-78L-93,-66L41,-33Z" fill="#f3192d" stroke="#f3192d" stroke-width="1.51"/><path d="M-38,-174L-93,-66L58,-78Z" fill="#f21b2f" stroke="#f21b2f" stroke-width="1.51"/><path d="M1418,720L1438,500L1359,716Z" fill="#cc2032" stroke="#cc2032" stroke-width="1.51"/><path d="M1359,716L1438,500L1300,542Z" fill="#c92031" stroke="#c92031" stroke-width="1.51"/><path d="M1331,346L1440,292L1308,215Z" fill="#e51f33" stroke="#e51f33" stroke-width="1.51"/><path d="M1438,500L1440,292L1331,346Z" fill="#da2033" stroke="#da2033" stroke-width="1.51"/><path d="M1292,-54L1256,-139L1162,-62Z" fill="#eb1d32" stroke="#eb1d32" stroke-width="1.51"/><path d="M1320,-116L1256,-139L1292,-54Z" fill="#ec1e33" stroke="#ec1e33" stroke-width="1.51"/><path d="M1412,84L1387,81L1308,215Z" fill="#ea1b2e" stroke="#ea1b2e" stroke-width="1.51"/><path d="M1387,81L1320,-57L1292,-54Z" fill="#eb1b2f" stroke="#eb1b2f" stroke-width="1.51"/><path d="M556,1081L1131,1074L966,1030Z" fill="#b8202e" stroke="#b8202e" stroke-width="1.51"/><path d="M966,1030L1131,1074L1066,905Z" fill="#c72030" stroke="#c72030" stroke-width="1.51"/><path d="M1451,824L1418,720L1352,771Z" fill="#d92033" stroke="#d92033" stroke-width="1.51"/><path d="M980,-173L-38,-174L556,-148Z" fill="#eb1f34" stroke="#eb1f34" stroke-width="1.51"/><path d="M556,-148L-38,-174L274,-119Z" fill="#f21a2f" stroke="#f21a2f" stroke-width="1.51"/><path d="M274,-119L-38,-174L171,-78Z" fill="#f4172c" stroke="#f4172c" stroke-width="1.51"/><path d="M1465,276L1412,84L1308,215Z" fill="#e51d30" stroke="#e51d30" stroke-width="1.51"/><path d="M1387,81L1476,-70L1320,-57Z" fill="#e71c2f" stroke="#e71c2f" stroke-width="1.51"/><path d="M1440,292L1465,276L1308,215Z" fill="#e21f32" stroke="#e21f32" stroke-width="1.51"/><path d="M1612,442L1465,276L1440,292Z" fill="#d72033" stroke="#d72033" stroke-width="1.51"/><path d="M-3,1028L18,956L-97,937Z" fill="#df1d30" stroke="#df1d30" stroke-width="1.51"/><path d="M18,956L63,1079L248,1045Z" fill="#dc1b2c" stroke="#dc1b2c" stroke-width="1.51"/><path d="M248,1045L63,1079L556,1081Z" fill="#d61d2d" stroke="#d61d2d" stroke-width="1.51"/><path d="M1373,926L1227,794L1211,937Z" fill="#e42034" stroke="#e42034" stroke-width="1.51"/><path d="M1352,771L1418,720L1359,716Z" fill="#d82032" stroke="#d82032" stroke-width="1.51"/><path d="M1634,379L1580,265L1465,276Z" fill="#d52032" stroke="#d52032" stroke-width="1.51"/><path d="M1476,-70L1320,-116L1320,-57Z" fill="#e61d31" stroke="#e61d31" stroke-width="1.51"/><path d="M1320,-57L1320,-116L1292,-54Z" fill="#eb1d32" stroke="#eb1d32" stroke-width="1.51"/><path d="M-97,937L0,791L-90,790Z" fill="#ed1e32" stroke="#ed1e32" stroke-width="1.51"/><path d="M-191,650L-97,937L-90,790Z" fill="#e81f33" stroke="#e81f33" stroke-width="1.51"/><path d="M-38,-174L-124,-120L-93,-66Z" fill="#f01d31" stroke="#f01d31" stroke-width="1.51"/><path d="M-93,-66L-124,-120L-117,51Z" fill="#f11b2f" stroke="#f11b2f" stroke-width="1.51"/><path d="M1418,720L1497,546L1438,500Z" fill="#c32030" stroke="#c32030" stroke-width="1.51"/><path d="M1595,688L1623,560L1497,546Z" fill="#bb202f" stroke="#bb202f" stroke-width="1.51"/><path d="M1252,1077L1305,979L1211,937Z" fill="#d62033" stroke="#d62033" stroke-width="1.51"/><path d="M1305,979L1373,926L1211,937Z" fill="#dc2034" stroke="#dc2034" stroke-width="1.51"/><path d="M1305,979L1442,1032L1373,926Z" fill="#d22032" stroke="#d22032" stroke-width="1.51"/><path d="M1131,1074L1252,1077L1211,937Z" fill="#cf2032" stroke="#cf2032" stroke-width="1.51"/><path d="M556,1081L1252,1077L1131,1074Z" fill="#ba202f" stroke="#ba202f" stroke-width="1.51"/><path d="M1373,926L1451,824L1352,771Z" fill="#e02034" stroke="#e02034" stroke-width="1.51"/><path d="M1597,81L1412,84L1465,276Z" fill="#e01c2e" stroke="#e01c2e" stroke-width="1.51"/><path d="M1597,81L1487,36L1412,84Z" fill="#e21a2c" stroke="#e21a2c" stroke-width="1.51"/><path d="M1412,84L1487,36L1387,81Z" fill="#e7192c" stroke="#e7192c" stroke-width="1.51"/><path d="M1612,442L1440,292L1438,500Z" fill="#d02032" stroke="#d02032" stroke-width="1.51"/><path d="M1612,442L1438,500L1497,546Z" fill="#c52030" stroke="#c52030" stroke-width="1.51"/><path d="M1487,36L1476,-70L1387,81Z" fill="#e41b2e" stroke="#e41b2e" stroke-width="1.51"/><path d="M1320,-116L1612,-169L1256,-139Z" fill="#e21f33" stroke="#e21f33" stroke-width="1.51"/><path d="M1567,38L1476,-70L1487,36Z" fill="#df1c2e" stroke="#df1c2e" stroke-width="1.51"/><path d="M1623,560L1612,442L1497,546Z" fill="#bf202f" stroke="#bf202f" stroke-width="1.51"/><path d="M1595,688L1497,546L1418,720Z" fill="#c62030" stroke="#c62030" stroke-width="1.51"/><path d="M1373,926L1496,878L1451,824Z" fill="#d82033" stroke="#d82033" stroke-width="1.51"/><path d="M1442,1032L1496,878L1373,926Z" fill="#d12032" stroke="#d12032" stroke-width="1.51"/><path d="M1597,81L1567,38L1487,36Z" fill="#de1b2c" stroke="#de1b2c" stroke-width="1.51"/><path d="M1597,81L1465,276L1580,265Z" fill="#da1e2f" stroke="#da1e2f" stroke-width="1.51"/><path d="M-97,937L-166,1072L-3,1028Z" fill="#d91f30" stroke="#d91f30" stroke-width="1.51"/><path d="M-3,1028L-166,1072L63,1079Z" fill="#d51e2f" stroke="#d51e2f" stroke-width="1.51"/><path d="M-191,650L-166,1072L-97,937Z" fill="#e51f33" stroke="#e51f33" stroke-width="1.51"/><path d="M1623,560L1634,379L1612,442Z" fill="#c12030" stroke="#c12030" stroke-width="1.51"/><path d="M1612,442L1634,379L1465,276Z" fill="#cf2032" stroke="#cf2032" stroke-width="1.51"/><path d="M1595,688L1418,720L1451,824Z" fill="#d02032" stroke="#d02032" stroke-width="1.51"/><path d="M1636,790L1595,688L1451,824Z" fill="#ce2032" stroke="#ce2032" stroke-width="1.51"/><path d="M1634,379L1597,81L1580,265Z" fill="#d41e30" stroke="#d41e30" stroke-width="1.51"/><path d="M1496,878L1636,790L1451,824Z" fill="#d72033" stroke="#d72033" stroke-width="1.51"/><path d="M1252,1077L1442,1032L1305,979Z" fill="#d02032" stroke="#d02032" stroke-width="1.51"/><path d="M1442,1032L1552,958L1496,878Z" fill="#cc2031" stroke="#cc2031" stroke-width="1.51"/><path d="M1595,688L1636,790L1623,560Z" fill="#c0202f" stroke="#c0202f" stroke-width="1.51"/><path d="M1552,958L1636,790L1496,878Z" fill="#d02032" stroke="#d02032" stroke-width="1.51"/><path d="M1623,560L1636,790L1634,379Z" fill="#b5202e" stroke="#b5202e" stroke-width="1.51"/><path d="M1476,-70L1612,-169L1320,-116Z" fill="#de1e31" stroke="#de1e31" stroke-width="1.51"/><path d="M1256,-139L1612,-169L980,-173Z" fill="#ea2035" stroke="#ea2035" stroke-width="1.51"/><path d="M1567,38L1612,-169L1476,-70Z" fill="#d91e2f" stroke="#d91e2f" stroke-width="1.51"/><path d="M1597,81L1612,-169L1567,38Z" fill="#d81d2d" stroke="#d81d2d" stroke-width="1.51"/><path d="M1634,379L1612,-169L1597,81Z" fill="#d91b2c" stroke="#d91b2c" stroke-width="1.51"/><path d="M1552,958L1608,1017L1636,790Z" fill="#c82031" stroke="#c82031" stroke-width="1.51"/><path d="M1442,1032L1608,1017L1552,958Z" fill="#c42030" stroke="#c42030" stroke-width="1.51"/><path d="M1252,1077L1608,1017L1442,1032Z" fill="#c72031" stroke="#c72031" stroke-width="1.51"/></svg>